<?xml version="1.0" encoding="utf-8"?>
<!-- Generator: Adobe Illustrator 22.1.0, SVG Export Plug-In . SVG Version: 6.00 Build 0)  -->
<svg version="1.1" id="Ebene_1" xmlns="http://www.w3.org/2000/svg" xmlns:xlink="http://www.w3.org/1999/xlink" x="0px" y="0px"
	 viewBox="0 0 64 64" style="enable-background:new 0 0 64 64;" xml:space="preserve">
<style type="text/css">
	.st0{fill:#FFFFFF;}
	.st1{fill:none;}
	.st2{fill:#999999;}
	.st3{fill:#1D1D1B;}
	.st4{fill:#CD1531;}
	.st5{fill:#FCC200;}
	.st6{fill:#9C9B9B;}
	.st7{fill:#EC4E60;}
	.st8{fill:#006298;}
</style>
<g>
	<g>
		<path class="st0" d="M64,49.8C64,57.6,57.6,64,49.8,64H14.2C6.4,64,0,57.6,0,49.8V14.2C0,6.4,6.4,0,14.2,0h35.6
			C57.6,0,64,6.4,64,14.2V49.8z"/>
	</g>
	<g>
		<rect x="14.2" y="14.2" class="st1" width="35.6" height="35.6"/>
	</g>
	<g>
		<path class="st2" d="M49.8,49.8H14.9c-0.4,0-0.7-0.3-0.7-0.7V14.2h1.4v34.1h34.1V49.8z"/>
	</g>
	<g>
		<g>
			<path class="st0" d="M60.4,18.9c0,0.2-0.1,0.3-0.3,0.3h-15c-0.2,0-0.3-0.1-0.3-0.3v-15c0-0.2,0.1-0.3,0.3-0.3h15
				c0.2,0,0.3,0.1,0.3,0.3V18.9z"/>
		</g>
		<g>
			<g>
				<polygon class="st3" points="47.5,7.6 47.5,13.7 49.7,13.7 49.7,7.6 				"/>
			</g>
			<g>
				<polygon class="st4" points="51.5,13.7 51.5,9 53.7,9 53.7,13.7 				"/>
			</g>
			<g>
				<rect x="55.5" y="6.7" class="st5" width="2.2" height="6.9"/>
			</g>
			<g>
				<rect x="47.4" y="14.5" class="st6" width="10.4" height="1.6"/>
			</g>
		</g>
	</g>
	<g>
		<path class="st7" d="M18.7,41.6l-1.9-2.1l9.5-8.5c0.3-0.2,0.6-0.4,1-0.4h8.9l9.1-8.2l1.9,2.1l-9.5,8.5c-0.3,0.2-0.6,0.4-1,0.4
			h-8.9L18.7,41.6z"/>
	</g>
	<g>
		<path class="st8" d="M18.4,46.8l-1.2-2.6l9.5-4.3c0.2-0.1,0.4-0.1,0.6-0.1h9.2l9.2-4.1l1.2,2.6l-9.5,4.3c-0.2,0.1-0.4,0.1-0.6,0.1
			h-9.2L18.4,46.8z"/>
	</g>
</g>
</svg>
