<?xml version="1.0" standalone="no"?>
<!DOCTYPE svg PUBLIC "-//W3C//DTD SVG 20010904//EN"
 "http://www.w3.org/TR/2001/REC-SVG-20010904/DTD/svg10.dtd">
<svg version="1.0" xmlns="http://www.w3.org/2000/svg"
 width="600.000000pt" height="600.000000pt" viewBox="0 0 600.000000 600.000000"
 preserveAspectRatio="xMidYMid meet">
<metadata>
Created by potrace 1.11, written by Peter Selinger 2001-2013
</metadata>
<g transform="translate(0.000000,600.000000) scale(0.100000,-0.100000)"
fill="#000000" stroke="none">
<path d="M4460 5005 l0 -285 105 0 105 0 0 285 0 285 -105 0 -105 0 0 -285z"/>
<path d="M4837 5153 c-4 -3 -7 -102 -7 -220 l0 -213 105 0 105 0 0 220 0 220
-98 0 c-54 0 -102 -3 -105 -7z"/>
<path d="M3820 3510 l-422 -380 -437 0 c-411 0 -438 -1 -466 -19 -42 -26 -900
-801 -900 -813 0 -5 37 -51 83 -103 l84 -94 426 384 427 385 436 0 436 0 40
28 c22 15 234 202 471 416 l432 389 -86 93 c-48 52 -90 94 -94 94 -4 0 -198
-171 -430 -380z"/>
<path d="M3865 2463 l-410 -187 -465 -6 -465 -5 -450 -204 c-247 -112 -451
-205 -453 -206 -6 -5 103 -235 112 -235 6 0 198 84 426 188 l415 187 460 5
460 5 440 199 c242 109 444 202 449 206 8 8 -91 240 -103 240 -3 0 -190 -84
-416 -187z"/>
</g>
</svg>
